<?xml version="1.0" encoding="utf-8"?>
<!-- Generator: Adobe Illustrator 24.1.2, SVG Export Plug-In . SVG Version: 6.00 Build 0)  -->
<svg version="1.1" xmlns="http://www.w3.org/2000/svg" xmlns:xlink="http://www.w3.org/1999/xlink" x="0px" y="0px"
	 viewBox="0 0 1980 1080" style="enable-background:new 0 0 1980 1080;" xml:space="preserve">
<style type="text/css">
	.st0{fill:#079987;stroke:#000000;stroke-width:4;stroke-miterlimit:10;}
	.st1{fill:none;stroke:#000000;stroke-width:4;stroke-miterlimit:10;}
</style>
<g id="Layer_1">
	<g>
		<path class="st0" d="M1218.2,763c0,0-7.4-0.1-8.6,0.9c-1.2,1-7.6,4.1-7.6,4.1l-13.2,7.3c0,0-10.4,11.5-11.3,12.7
			c-0.8,1.2-2.2,12.7-2.2,12.7l-1.3,19.5c0,0,2.3,7.8,2.7,8.9c0.4,1.1,5.3,7.4,5.3,7.4l12.9,13.5l9,2.7l7.3-0.7"/>
		<path class="st1" d="M1402.5,426.5V440l5,0.5l4,6l1.5,5.5l-2,12l-1,5c0,0-8,1.3-7.5,1.6s-1.5,6.4-1.5,7.4s2,6,2,6l1,14l7,5l-3,12
			l12,15c0,0,2,8,1,8s-6,6-6,6l-6,9l-6,5l-2,3.9l-5,8.1l6,7l3,9c0,0,2,11,2,12s-3.1,11.2-3.1,11.2l3.1,12.8v23l-11,3.1l-5,3.9
			l-8.5,6.6L1356,661l-9.5,3.2c0,0-6.5-3.2-8.5-3.2s-24-1-24-1l-9.6,4.2h-20.2l-3.7,3.8l-11.7-3.8L1257,661l-7,8
			c0,0-3.7,7.9-4.9,7.5c-1.1-0.5-19.3,0.2-19.3,0.2l-7.6,13.4c0,0-1.4,6.7-1.3,7.3s0.2,12,0.2,12l5.5,3.2l3.1,6.8l-0.7,6.7l-3.2,1
			l-1.1,6.8l-3.5,1.5l-1.1,9l3.1,2.8l0.9,9.9l-1.2,6.9c0,0-2.1,13.2-2,13.6c0.2,0.5-3.1,24-3,24.8c0.1,0.7-2,17-2,17l-1,44.3
			l-8.3,15.4l-11.7,12.9c0,0-9.8,0.3-9.4,0.7c0.5,0.4-4.1,6.2-4.8,7.3S1167,889,1167,889l-9.4-8.5L1149,867l-3.6-2.7l-3.9-9.1
			l-7.5-9.1l-8,1l-9.2,4.6c0,0-1.2,9.1-1.5,9.7s-4,11.7-4,11.7l-6.1,11.8l-16,20.3l-13.1,12c0,0-11.3,6.9-13.2,8.4
			S1052,927,1050,926s-7-9-7-9l-11.1-8.5l-31.2,2.5l-14.3,6.9l-7.5,0.4l-9.9,4.9c0,0-11.2-0.8-12.1,0.5c-0.8,1.3-5.9,4-5.9,4
			L943,924l-3-3.3l-12,1.3l-14.2,4.3L900,918l-7.7-9c0,0-0.3-5.8-1.3-5.9c-1-0.1-9.1,2.1-9.1,2.1L876,911l-8.8-5.2l-3.4-2.7L852,907
			c0,0-6.9-1.3-6.4-1.2s-11.5,5-12.5,5.1c-1.1,0.1-9.3,8.5-9.3,8.5l-4.1-21.1l-3.5-8.9c0,0-6.2,2.5-7.2,3.5s-7.8,0.3-7.8,0.3
			l-5.6-4.4l-6.2-4.3l-11.5-1.2L773,877l-1.4-5h-10.8l-11.2-2.5l-8.5,2.5c0,0-13.4,0.1-13.8,0.5C727,873,721,866,721,866l-0.3-9.5
			l1.1-22.6l7.6-4.3l20.4-2c0,0,6-4.3,6.6-3.9c0.6,0.4,5.6-6.6,5.6-6.6l3-7l2-9l4-9l-4-10l-8-5l4-4l11-3l14-2l7-8l-2-31l0.2-40.4
			l3.6-4.1l0.2-6.4l6-5l7-1l6-4l8-4l12-9l12-10l4-14l-6-8l-2-24l-14-8l2-36l3-9l-5-9c0,0-1-9,0-9s14-10,14-10s-1-31-2-31s-10-7-11-7
			s-14-4-14-4l-12-11l-6-12l-4-11l-8-10l-8-8l-20-21l16-18l7-6l10-2l10-7l7-9l6-6l11-9l-6-11l-9-11l-5-23v-8l-6-4l1-33l7-6l7-10
			l10-3l12,2l10,7l9,7l5,2l6-4l2-10l5-5l10-10l3-6c0,0,6-6,5-7s-3.5-7.5-3.5-7.5L885,198l8-7l11-2l4.4-4.3L910,153l6.7-9.2L931,131
			l9-10.3l8.9-0.9l5.1,7.2l8,9l8.2,9.3l4.1,0.9l5.3,4.5l21.5-1.9l2.4-6l7.5-10.8h23l2.6,5.6l5.4,5.4l12,6l9,5l16,11l14,11l10,3l10,6
			v37l6,9l3,13l-6,9c0,0-5,5-6,6s-1.3,42.4-1.3,42.4l5.3,3.6l7-2l6-4l13-1l6,9l15,12c0,0,0,13-1,14s-3,7-3,7s-4,4-4,5s1,16,1,16l9,4
			h30l5,5l8,6l35,36l13-1l9,11c0,0,24-3,25-3s9-4,9-4l11,1l33,28c0,0,7-2,8-3s7-6,7-6l20-1l7-4l7-3l8-4l4-2L1402.5,426.5z"/>
	</g>
</g>
<g id="Drugregion">
</g>
</svg>
